<?xml version="1.0" standalone="no"?>
<!DOCTYPE svg PUBLIC "-//W3C//DTD SVG 20010904//EN"
 "http://www.w3.org/TR/2001/REC-SVG-20010904/DTD/svg10.dtd">
<svg version="1.0" xmlns="http://www.w3.org/2000/svg"
 width="920.000000pt" height="665.000000pt" viewBox="0 0 920.000000 665.000000"
 preserveAspectRatio="xMidYMid meet">
<metadata>
Created by potrace 1.15, written by Peter Selinger 2001-2017
</metadata>
<g transform="translate(0.000000,665.000000) scale(0.100000,-0.100000)"
fill="#000000" stroke="none">
<path d="M1102 6220 c-188 -50 -347 -180 -432 -355 -75 -153 -70 13 -70 -2330
0 -2344 -5 -2177 70 -2330 87 -179 243 -306 436 -355 76 -20 126 -20 3494 -20
3374 0 3418 0 3494 20 251 64 444 266 491 514 22 114 23 4224 1 4339 -44 231
-213 423 -442 504 l-79 28 -3445 2 c-3364 2 -3447 2 -3518 -17z m6643 -479
c-11 -10 -182 -162 -381 -337 -198 -176 -553 -490 -789 -699 -1718 -1522
-1615 -1432 -1750 -1516 -44 -27 -111 -59 -149 -71 -61 -18 -74 -19 -123 -8
-99 22 -242 109 -393 239 -76 65 -394 347 -1715 1515 -533 472 -979 867 -990
877 -19 19 56 19 3145 19 3106 0 3164 0 3145 -19z m-6148 -848 c707 -619 1374
-1204 1480 -1297 50 -44 89 -84 87 -88 -3 -4 -456 -413 -1007 -909 -551 -496
-1014 -913 -1029 -927 l-28 -26 0 1837 c0 1010 2 1837 5 1837 3 0 224 -192
492 -427z m6503 -1409 l0 -1836 -37 33 c-561 505 -1948 1754 -1984 1788 l-50
46 64 55 c94 80 1622 1421 1822 1598 94 83 173 151 178 151 4 1 7 -825 7
-1835z m-4364 -511 c112 -98 237 -198 276 -222 353 -215 853 -210 1195 11 39
25 159 123 267 218 l197 172 27 -24 c15 -14 405 -359 867 -768 462 -409 916
-812 1009 -894 l170 -151 -1572 -3 c-865 -1 -2279 -1 -3143 0 l-1572 3 124
111 c68 61 482 427 919 814 437 388 847 751 910 807 63 57 116 103 118 103 2
0 95 -80 208 -177z"/>
</g>
</svg>
