<?xml version="1.0" standalone="no"?>
<!DOCTYPE svg PUBLIC "-//W3C//DTD SVG 20010904//EN"
 "http://www.w3.org/TR/2001/REC-SVG-20010904/DTD/svg10.dtd">
<svg version="1.0" xmlns="http://www.w3.org/2000/svg"
 width="1024.000000pt" height="1024.000000pt" viewBox="0 0 1024.000000 1024.000000"
 preserveAspectRatio="xMidYMid meet">
<metadata>
Created by potrace 1.15, written by Peter Selinger 2001-2017
</metadata>
<g transform="translate(0.000000,1024.000000) scale(0.100000,-0.100000)"
fill="#767676" stroke="none">
<path d="M4665 10225 c-1214 -111 -2313 -625 -3169 -1481 -862 -862 -1376
-1969 -1482 -3189 -21 -242 -15 -785 11 -1000 148 -1244 686 -2321 1584 -3169
491 -463 1106 -844 1726 -1070 55 -20 111 -41 125 -47 14 -6 57 -13 95 -16
102 -8 177 16 232 73 74 77 74 78 67 641 -5 344 -11 493 -18 493 -6 0 -72 -9
-146 -21 -194 -30 -525 -37 -683 -15 -293 41 -505 139 -672 311 -92 94 -125
146 -194 303 -144 328 -359 634 -519 738 -31 20 -74 48 -95 62 -112 75 -181
168 -157 212 7 12 33 31 58 43 70 31 249 31 352 -1 90 -28 201 -86 278 -146
98 -75 237 -229 318 -353 156 -239 285 -364 469 -453 143 -70 230 -91 405 -97
109 -4 169 -1 240 11 99 17 262 64 341 98 44 18 47 22 54 66 30 216 137 450
267 588 28 30 49 56 47 57 -2 2 -62 11 -134 21 -1372 183 -2058 856 -2176
2136 -18 196 -15 523 6 665 55 380 203 716 439 999 36 43 66 79 66 80 0 1 -11
34 -25 74 -49 146 -66 254 -72 462 -6 227 7 347 62 555 54 202 77 258 111 268
38 11 195 1 287 -19 283 -59 679 -241 1014 -466 l72 -48 138 35 c377 94 719
135 1148 135 428 0 796 -45 1185 -145 l95 -24 105 68 c488 317 977 500 1244
467 l54 -7 45 -137 c131 -401 141 -772 31 -1133 l-26 -86 70 -86 c230 -282
367 -586 429 -956 25 -145 24 -604 0 -801 -135 -1072 -670 -1688 -1689 -1945
-144 -36 -426 -88 -550 -100 -38 -4 -68 -10 -68 -12 0 -3 23 -31 52 -62 146
-159 237 -376 273 -649 12 -92 15 -262 15 -915 0 -786 1 -803 21 -847 42 -93
104 -131 224 -138 91 -5 132 7 380 105 782 311 1506 841 2052 1503 590 716
979 1593 1113 2507 68 470 68 1058 -1 1513 -167 1099 -663 2082 -1445 2864
-858 858 -1966 1375 -3174 1481 -213 18 -703 18 -905 0z"/>
</g>
</svg>
