<?xml version="1.0" standalone="no"?>
<!DOCTYPE svg PUBLIC "-//W3C//DTD SVG 20010904//EN"
 "http://www.w3.org/TR/2001/REC-SVG-20010904/DTD/svg10.dtd">
<svg version="1.0" xmlns="http://www.w3.org/2000/svg"
 width="20pt" height="20pt" viewBox="0 0 512.000000 512.000000"
 preserveAspectRatio="xMidYMid meet">
<metadata>
Created by potrace 1.15, written by Peter Selinger 2001-2017
</metadata>
<g transform="translate(0.000000,512.000000) scale(0.100000,-0.100000)"
stroke="none">
<path d="M218 4470 c-44 -13 -92 -47 -136 -94 -69 -75 -77 -98 -77 -217 0
-104 1 -107 36 -165 39 -63 115 -124 180 -143 26 -8 707 -11 2345 -11 l2309 0
60 29 c76 35 147 112 170 182 24 70 17 198 -13 255 -33 64 -102 128 -167 152
l-57 22 -2311 -1 c-1272 0 -2324 -4 -2339 -9z"/>
<path d="M218 2870 c-44 -13 -92 -47 -136 -94 -69 -75 -77 -98 -77 -217 0
-104 1 -107 36 -165 39 -63 116 -126 179 -144 23 -6 814 -10 2345 -10 l2310 0
60 29 c76 35 147 112 170 182 24 70 17 198 -13 255 -33 64 -102 128 -167 152
l-57 22 -2311 -1 c-1272 0 -2324 -4 -2339 -9z"/>
<path d="M219 1271 c-42 -14 -71 -32 -122 -80 -79 -73 -92 -107 -92 -232 0
-104 1 -107 36 -165 39 -63 116 -126 179 -144 23 -6 814 -10 2345 -10 l2310 0
60 29 c76 35 147 112 170 182 24 70 17 198 -13 255 -33 64 -102 128 -167 152
l-57 22 -2311 -1 c-1272 0 -2324 -4 -2338 -8z"/>
</g>
</svg>
