<?xml version="1.0" standalone="no"?>
<!DOCTYPE svg PUBLIC "-//W3C//DTD SVG 20010904//EN"
 "http://www.w3.org/TR/2001/REC-SVG-20010904/DTD/svg10.dtd">
<svg version="1.0" xmlns="http://www.w3.org/2000/svg"
 width="512.000000pt" height="512.000000pt" viewBox="0 0 512.000000 512.000000"
 preserveAspectRatio="xMidYMid meet">
<metadata>
Created by potrace 1.15, written by Peter Selinger 2001-2017
</metadata>
<g transform="translate(0.000000,512.000000) scale(0.100000,-0.100000)"
fill="#000000" stroke="none">
<path d="M1048 4750 c-313 -54 -570 -287 -660 -597 l-23 -78 0 -1515 0 -1515
23 -78 c81 -281 298 -498 579 -579 l78 -23 1505 0 c1701 0 1577 -6 1748 80
161 81 296 216 377 377 86 171 80 47 80 1748 l0 1505 -23 78 c-80 278 -293
492 -574 579 l-73 23 -1495 1 c-822 1 -1516 -2 -1542 -6z m2217 -1115 c88 -23
177 -69 238 -125 53 -48 54 -49 98 -39 78 17 172 51 252 90 42 21 77 36 77 33
0 -2 -13 -31 -29 -62 -42 -83 -103 -156 -173 -207 -56 -42 -58 -45 -32 -45 36
0 169 32 247 59 51 18 56 18 48 3 -29 -52 -240 -262 -263 -262 -4 0 -8 -44 -8
-97 -1 -634 -391 -1263 -945 -1528 -116 -55 -273 -108 -405 -137 -92 -20 -134
-22 -345 -23 -214 0 -252 3 -345 23 -156 34 -270 75 -420 150 l-135 67 160 6
c165 6 238 19 365 63 86 31 223 102 294 154 l51 37 -55 8 c-151 23 -270 83
-371 188 -48 50 -129 179 -129 205 0 5 48 9 108 9 59 0 115 5 126 11 16 10 9
14 -50 32 -172 53 -331 202 -394 369 -19 51 -44 183 -35 191 2 2 17 -4 34 -12
36 -19 184 -56 224 -56 26 0 22 6 -56 83 -95 93 -138 167 -162 282 -26 122
-18 234 24 345 35 91 30 91 122 -5 199 -207 429 -353 700 -443 129 -43 324
-82 408 -82 l48 0 -5 103 c-5 125 13 210 66 311 73 139 231 264 378 300 79 19
216 19 289 1z"/>
</g>
</svg>
